<?xml version="1.0" encoding="UTF-8"?>
<svg id="Capa_2" data-name="Capa 2" xmlns="http://www.w3.org/2000/svg" viewBox="0 0 1000 200">
  <defs>
    <style>
      .cls-1 {
        fill: #de4c51;
      }

      .cls-1, .cls-2 {
        opacity: .26;
        stroke: #fff;
        stroke-miterlimit: 10;
        stroke-width: 2px;
      }

      .cls-3 {
        fill: #312d39;
      }

      .cls-2 {
        fill: #50bdc5;
      }
    </style>
  </defs>
  <rect class="cls-3" width="1000" height="200"/>
  <polygon class="cls-1" points="473.3 105.07 379.81 134.42 326.08 151.29 282.88 164.85 262.16 98.85 256.2 79.86 251.81 65.87 245.63 46.19 231.14 0 440.32 0 473.3 105.07"/>
  <polygon class="cls-1" points="259.01 56.73 251.81 65.87 238.75 82.44 195.47 137.35 168.9 171.06 146.09 200 118.37 200 0 106.7 0 62.94 49.61 0 187.03 0 245.63 46.19 259.01 56.73"/>
  <rect class="cls-1" x="504.72" y="118.34" width="68.14" height="68.14"/>
  <polygon class="cls-1" points="354.2 200 185.61 200 168.9 171.06 160.95 157.28 195.47 137.35 262.16 98.85 287.39 84.28 326.08 151.29 354.2 200"/>
  <polygon class="cls-1" points="992.28 72.19 853.57 106.18 850.47 106.94 834.21 40.57 828.15 15.85 824.26 0 974.59 0 982.88 33.82 992.28 72.19"/>
  <polygon class="cls-1" points="1000 33.04 1000 200 799.76 200 798.54 173.2 792.6 42.46 834.21 40.57 843.84 40.13 982.88 33.82 1000 33.04"/>
  <polygon class="cls-2" points="535.01 120.29 504.72 130.71 391.88 169.52 379.81 134.42 342.65 26.38 419.35 0 493.64 0 534.34 118.34 535.01 120.29"/>
  <polygon class="cls-2" points="731.15 200 495.25 200 481.56 168.67 504.72 158.55 572.86 128.77 630.91 103.41 679.63 82.12 681.26 85.84 705.88 142.19 724.22 184.15 731.15 200"/>
  <polygon class="cls-2" points="758.82 20.26 750.52 27.28 695.77 73.57 681.26 85.84 643.24 117.99 630.91 103.41 545.5 2.41 548.35 0 741.69 0 758.82 20.26"/>
  <rect class="cls-2" x="700.48" y="24.32" width="151.37" height="151.37" transform="translate(762 -682.45) rotate(81.62)"/>
  <polygon class="cls-2" points="328.73 69.18 256.2 79.86 238.75 82.44 178.98 91.24 165.55 0 318.54 0 328.73 69.18"/>
  <rect class="cls-2" x="92.22" y="55.55" width="61.25" height="61.25" transform="translate(109.33 -63.28) rotate(49.78)"/>
</svg>